PathFileType	4	(X/Y/Z)	RBDS05\RBDS05runT25.trc
DataRate	CameraRate	NumFrames	NumMarkers	Units	OrigDataRate	OrigDataStartFrame	OrigNumFrames
150.000000	150.000000	4	33	mm	150.000000	1687	4500
Frame#	Time	L.ASIS			L.Heel.Bottom			L.Heel.Lateral			L.Heel.Top			L.Iliac.Crest			L.MT1			L.MT5			L.PSIS			L.Shank.Bottom.Lateral			L.Shank.Bottom.Medial			L.Shank.Top.Lateral			L.Shank.Top.Medial			L.Thigh.Bottom.Lateral			L.Thigh.Bottom.Medial			L.Thigh.Top.Lateral			L.Thigh.Top.Medial			R.ASIS			R.ASY			R.Heel.Bottom			R.Heel.Lateral			R.Heel.Top			R.Iliac.Crest			R.MT1			R.MT5			R.PSIS			R.Shank.Bottom.Lateral			R.Shank.Bottom.Medial			R.Shank.Top.Lateral			R.Shank.Top.Medial			R.Thigh.Bottom.Lateral			R.Thigh.Bottom.Medial			R.Thigh.Top.Lateral			R.Thigh.Top.Medial			
		X1	Y1	Z1	X2	Y2	Z2	X3	Y3	Z3	X4	Y4	Z4	X5	Y5	Z5	X6	Y6	Z6	X7	Y7	Z7	X8	Y8	Z8	X9	Y9	Z9	X10	Y10	Z10	X11	Y11	Z11	X12	Y12	Z12	X13	Y13	Z13	X14	Y14	Z14	X15	Y15	Z15	X16	Y16	Z16	X17	Y17	Z17	X18	Y18	Z18	X19	Y19	Z19	X20	Y20	Z20	X21	Y21	Z21	X22	Y22	Z22	X23	Y23	Z23	X24	Y24	Z24	X25	Y25	Z25	X26	Y26	Z26	X27	Y27	Z27	X28	Y28	Z28	X29	Y29	Z29	X30	Y30	Z30	X31	Y31	Z31	X32	Y32	Z32	X33	Y33	Z33	

1688	11.24666666666667	2210.113718105952	915.3850929983541	878.339441852354	1779.526977724219	273.4316309495328	948.3935920434	1811.797675182599	261.9140474661133	903.9234879976527	1826.724644101307	289.166595121099	951.4234951788194	2152.781282984006	977.292208156352	835.6902012880259	1899.744178953044	105.2123651999017	960.0051490270354	1877.926723212596	137.3889233611996	861.8438085508353	2053.296009329675	955.3766987512572	933.8472278426553	1931.980704318718	292.224147492588	880.5892717697624	1913.024164031555	324.514746451264	915.6900774721692	1994.313281547964	341.5251276093547	864.6556464012065	1978.580424442964	376.1833000739597	901.7665145183802	2195.400507003544	562.9548476869834	830.0663411990522	2134.159967544679	543.9524118510578	865.2316653468675	2156.008910261075	666.2485399823578	824.992134583808	2101.258249080342	649.4208734627606	862.5765741493638	2200.228930939654	942.0259132645676	1103.712386628999	2138.928487848736	87.94837409053162	1030.804954940957	1968.633992280927	27.98564767000353	1007.885367492872	1991.695581209334	42.00549426818775	1049.1694889369	1978.727906491666	75.35395070232042	1009.302447853451	2137.983569705847	980.5023904167567	1130.983724057159	2178.948893307688	44.50516439301956	989.2932086150182	2144.194326177396	41.09040469101139	1091.627421780762	2050.25874043525	966.576607871741	1020.866304524764	2062.502115327428	165.5031291836443	1076.807099982236	2023.384417345485	182.1442927865139	1041.975731419411	2077.698536638231	243.2115795426061	1094.342950884018	2039.291856765706	258.7912029642948	1059.416049122683	2173.449305852517	556.8088528396428	1138.114106521326	2107.387654446993	543.7327519131647	1108.000819826979	2143.439860651865	662.5855734185392	1152.713807947445	2080.600959496408	649.7089320909635	1123.714439847465	
1689	11.25333333333333	2209.964477256813	917.2141190012028	879.0949533332532	1792.117680461853	265.1733326467952	945.8490106685322	1825.768972888103	255.1845402264578	901.9804098576815	1838.55728991228	282.746261197445	949.9763449545122	2151.822691101217	979.9656719013664	835.812554612967	1918.518725822592	101.6204775867707	958.5899571586988	1897.403195337082	133.6992696598972	860.1896886884014	2053.016286642291	957.4495234946205	932.8930258938444	1945.33359109087	289.6818779056576	880.5576505402501	1925.420573843926	321.1268770881798	915.8756052154019	2006.679763027029	340.4907083695413	865.6781519518803	1989.980374371004	374.3337474754736	903.1265597474934	2203.515815468937	565.7143305068566	832.2476828719321	2142.371989666466	545.2443297103603	866.7933645288198	2161.451202121033	667.90987382274	826.1623689447717	2106.501461265344	649.7588745341925	862.8727497602855	2198.594904501625	942.7246090898716	1104.240360479178	2121.971387044956	88.18986192377332	1031.572867782784	1951.643306589692	28.49248423530403	1008.204639266238	1974.694186074716	42.30977344022489	1049.590194250492	1961.786184176465	75.88163756357575	1009.885482052418	2136.767258281069	982.1747895673083	1130.676578635919	2161.852097559614	44.54215869192311	989.6629469951638	2127.142491549685	40.91162140589415	1091.933728763142	2049.718689722174	968.5140371646031	1020.18064762628	2046.339565144736	166.3350516206945	1077.298445152004	2007.491059297673	183.3327958945367	1042.302516892956	2062.321496156243	243.8662875492216	1094.684818373439	2024.035862153057	259.8514130897711	1059.754961741812	2162.932542343527	556.8408130873614	1138.283350367363	2096.494412787742	545.4008391704258	1108.262929671319	2135.58668172657	663.4063156853293	1152.606951871312	2072.470491776303	652.1084110645359	1123.525916911341	
1690	11.26	2210.055783581281	919.6707551946701	880.0047110584284	1805.358993429442	256.0497987939318	943.8026728374701	1840.121210616268	247.7997966419761	900.440050273667	1850.919427743922	275.5524746260993	948.891217751096	2151.352610816443	983.3500067074957	836.0396104897571	1938.256852211096	97.75050994074765	957.1942881742804	1917.391238173432	129.8044140902994	858.7351349449492	2052.95561390187	960.1410436671098	931.976033117796	1958.860363927814	286.8159117584585	880.7221860386171	1937.866775546896	317.3127581955852	916.2326664970769	2018.922267778174	339.3689984845469	866.8155658840961	2001.140550951336	372.3073766265882	904.5816578232792	2211.210790904956	569.1947756582128	834.3893450682457	2150.222035137253	547.3245596963051	868.3579689324297	2166.665455754123	670.2661937535464	827.2957343462911	2111.563243554497	650.8558871064882	863.1805472617669	2196.942416873577	943.5881386235495	1104.887006462095	2105.183944725308	88.42461755492329	1032.354579107182	1934.667245173503	29.4154544855763	1008.539970573089	1957.744035417593	42.94506523629767	1050.02528587593	1945.000923199642	76.79670148017951	1010.495937877422	2135.910456212865	984.1255942450947	1130.417514759857	2144.72380378688	44.48893112290715	989.9868010737238	2110.099417331469	40.6639432321144	1092.174209767363	2049.33414601868	970.9289954581905	1019.597772979854	2030.220902218121	167.534532910372	1077.700166369553	1991.564180887103	184.7991533730026	1042.579970092417	2046.822729620755	244.9346258572808	1094.907499476526	2008.597270744488	261.2230925274552	1059.985025193402	2151.997720333961	557.3160775966534	1138.153742729767	2085.229029062048	547.6047152400713	1108.199840813862	2127.460156457507	664.6108884279471	1152.277267254645	2064.110184480605	654.985324448448	1123.067287415753	
1691	11.26666666666667	2210.366267464791	922.6577604056072	881.0576505439219	1819.282205134552	246.123983183537	942.2435187482157	1854.876139380902	239.8099183019988	899.2916548250505	1863.846257697839	267.6250936263453	948.1704320775091	2151.386489403359	987.2239559363366	836.3378762860688	1958.889379214928	93.68448401288602	955.8882782361921	1937.858264384459	125.7535766313324	857.519172318989	2053.088615900812	963.3484118205147	931.07894585168	1972.583368251304	283.5805119891485	881.0759333202514	1950.376488599047	313.0629134520429	916.7033316166761	2031.059524102443	338.073047032687	868.0182324669026	2012.066638910019	370.0546868747281	906.0281173369208	2218.433411200709	573.3035491443144	836.4652087174244	2157.623384696402	550.1159169275164	869.8617105848626	2171.62487173766	673.2500914641051	828.3731920593342	2116.400819362472	652.6581696664688	863.4665831109376	2195.272764771148	944.6204104180185	1105.643635576625	2088.629947450259	88.67170272924335	1033.128483322494	1917.765252305864	30.87935728211468	1008.878762894922	1940.907458975129	44.02404385101826	1050.458414962076	1928.448917150422	78.20828120538272	1011.118299880698	2135.383632980469	986.3050891901597	1130.205195736813	2127.58391712872	44.38560329765375	990.2560579565009	2093.071936924318	40.4040566109472	1092.337719984225	2049.078341529003	973.7479096710281	1019.08202493129	2014.244687387871	169.1811836765728	1077.999707789813	1975.714397005679	186.6327891976122	1042.786597268651	2031.332210001649	246.4971672948755	1094.995484602994	1993.116982281637	262.9959474054139	1060.083665938037	2140.793947165862	558.2750183766839	1137.729304469939	2073.764848479637	550.3652096712738	1107.787578702653	2119.172406610332	666.2166708044003	1151.741491755134	2055.650765410978	658.3383465181219	1122.337467831955	
